<svg width="24" height="22" viewBox="0 0 24 22" fill="none" xmlns="http://www.w3.org/2000/svg">
<path d="M8.29 9.29C8.19896 9.3851 8.12759 9.49725 8.08 9.62C7.97998 9.86346 7.97998 10.1365 8.08 10.38C8.12759 10.5028 8.19896 10.6149 8.29 10.71L11.29 13.71C11.4783 13.8983 11.7337 14.0041 12 14.0041C12.2663 14.0041 12.5217 13.8983 12.71 13.71C12.8983 13.5217 13.0041 13.2663 13.0041 13C13.0041 12.7337 12.8983 12.4783 12.71 12.29L11.41 11H15C15.2652 11 15.5196 10.8946 15.7071 10.7071C15.8946 10.5196 16 10.2652 16 10C16 9.73478 15.8946 9.48043 15.7071 9.29289C15.5196 9.10536 15.2652 9 15 9H11.41L12.71 7.71C12.8037 7.61704 12.8781 7.50644 12.9289 7.38458C12.9797 7.26272 13.0058 7.13201 13.0058 7C13.0058 6.86799 12.9797 6.73728 12.9289 6.61542C12.8781 6.49356 12.8037 6.38296 12.71 6.29C12.617 6.19627 12.5064 6.12188 12.3846 6.07111C12.2627 6.02034 12.132 5.9942 12 5.9942C11.868 5.9942 11.7373 6.02034 11.6154 6.07111C11.4936 6.12188 11.383 6.19627 11.29 6.29L8.29 9.29ZM2 10C2 11.9778 2.58649 13.9112 3.6853 15.5557C4.78412 17.2002 6.3459 18.4819 8.17317 19.2388C10.0004 19.9957 12.0111 20.1937 13.9509 19.8079C15.8907 19.422 17.6725 18.4696 19.0711 17.0711C20.4696 15.6725 21.422 13.8907 21.8079 11.9509C22.1937 10.0111 21.9957 8.00043 21.2388 6.17317C20.4819 4.3459 19.2002 2.78412 17.5557 1.6853C15.9112 0.58649 13.9778 0 12 0C10.6868 0 9.38642 0.258658 8.17317 0.761205C6.95991 1.26375 5.85752 2.00035 4.92893 2.92893C3.05357 4.8043 2 7.34784 2 10ZM20 10C20 11.5823 19.5308 13.129 18.6518 14.4446C17.7727 15.7602 16.5233 16.7855 15.0615 17.391C13.5997 17.9965 11.9911 18.155 10.4393 17.8463C8.88743 17.5376 7.46197 16.7757 6.34315 15.6569C5.22433 14.538 4.4624 13.1126 4.15372 11.5607C3.84504 10.0089 4.00346 8.40034 4.60896 6.93853C5.21447 5.47672 6.23984 4.22729 7.55544 3.34824C8.87103 2.46919 10.4177 2 12 2C14.1217 2 16.1566 2.84285 17.6569 4.34315C19.1571 5.84344 20 7.87827 20 10Z" fill="black"/>
</svg>
