<svg width="20" height="24" viewBox="0 0 20 24" fill="none" xmlns="http://www.w3.org/2000/svg">
<path d="M8.694 15.2066C8.59614 15.0957 8.46943 15.016 8.32894 14.9772C8.18846 14.9384 8.04012 14.9421 7.90159 14.9877L6.54503 15.4332C6.47082 15.4577 6.39247 15.4659 6.315 15.4573C6.23753 15.4487 6.16266 15.4235 6.0952 15.3833C6.02774 15.3431 5.96918 15.2888 5.92328 15.2239C5.87739 15.159 5.84517 15.0848 5.8287 15.0063L5.52435 13.5724C5.49304 13.4259 5.42173 13.2918 5.31883 13.1858C5.21593 13.0797 5.08576 13.0063 4.94369 12.9742L4.87961 12.9597L0 20.3301L3.97457 20.0565L5.08084 24L10.0661 16.48C9.98824 16.4805 9.91118 16.4639 9.84 16.4314C9.76881 16.399 9.70511 16.3513 9.6531 16.2916L8.694 15.2066Z" fill="#A78BFA"/>
<path d="M8.69395 15.2066C8.62281 15.1256 8.53607 15.0608 8.43927 15.0164C8.34248 14.972 8.23776 14.9488 8.13181 14.9485C8.05364 14.9484 7.97595 14.961 7.90154 14.9856L6.54498 15.4311C6.47074 15.4556 6.39236 15.4638 6.31486 15.4552C6.23736 15.4466 6.16245 15.4214 6.09495 15.3812C6.02745 15.341 5.96885 15.2867 5.9229 15.2218C5.87696 15.1569 5.84469 15.0828 5.82816 15.0042L5.67798 14.2929L1.65686 20.216L3.97403 20.0565L4.61927 22.3555L9.13496 15.7057L8.69395 15.2066ZM11.305 15.2066C11.4028 15.0956 11.5295 15.016 11.67 14.9772C11.8105 14.9384 11.9588 14.9421 12.0974 14.9877L13.4539 15.4332C13.5281 15.4577 13.6065 15.4659 13.684 15.4573C13.7614 15.4487 13.8363 15.4235 13.9038 15.3833C13.9712 15.3431 14.0298 15.2888 14.0757 15.2239C14.1216 15.1589 14.1538 15.0848 14.1702 15.0063L14.4746 13.5724C14.5059 13.426 14.5773 13.2919 14.6802 13.186C14.7831 13.08 14.9132 13.0067 15.0553 12.9747L15.1193 12.9602L20 20.33L16.0254 20.0565L14.9191 24L9.93288 16.4799C10.0107 16.4804 10.0878 16.4639 10.159 16.4314C10.2301 16.3989 10.2938 16.3513 10.3459 16.2915L11.305 15.2066Z" fill="#A78BFA"/>
<path d="M11.305 15.2066C11.4029 15.0957 11.5296 15.016 11.6701 14.9772C11.8106 14.9384 11.9589 14.9421 12.0974 14.9877L13.454 15.4332C13.5282 15.4577 13.6066 15.4659 13.684 15.4573C13.7615 15.4487 13.8364 15.4235 13.9038 15.3833C13.9713 15.3431 14.0298 15.2888 14.0757 15.2239C14.1216 15.159 14.1538 15.0848 14.1703 15.0063L14.3205 14.295L18.3411 20.216L16.0234 20.0565L15.3787 22.3555L10.864 15.7057L11.305 15.2066Z" fill="#A78BFA"/>
<path d="M11.9707 15.842L13.2722 16.2694C13.4593 16.3308 13.6567 16.3514 13.8519 16.3296C14.0472 16.3079 14.2358 16.2444 14.4058 16.1431C14.5758 16.0418 14.7235 15.9051 14.8393 15.7416C14.9551 15.5781 15.0365 15.3915 15.0783 15.1937L15.3696 13.8186L15.646 13.7567L15.1188 12.9602L15.0548 12.9747C14.9129 13.0069 14.783 13.0803 14.6803 13.1862C14.5776 13.2921 14.5064 13.4261 14.4751 13.5724L14.1708 15.0063C14.1543 15.0848 14.1221 15.1589 14.0762 15.2239C14.0303 15.2888 13.9717 15.3431 13.9043 15.3833C13.8368 15.4235 13.7619 15.4487 13.6845 15.4573C13.607 15.4659 13.5286 15.4577 13.4544 15.4332L12.0979 14.9877C11.9593 14.9421 11.811 14.9384 11.6705 14.9772C11.53 15.016 11.4033 15.0956 11.3055 15.2066L10.3464 16.2905C10.3053 16.3449 10.2527 16.3889 10.1926 16.4191C10.1325 16.4494 10.0666 16.4651 9.99971 16.4651C9.93286 16.4651 9.86688 16.4494 9.80681 16.4191C9.74674 16.3889 9.69416 16.3449 9.65306 16.2905L8.69446 15.2066C8.62331 15.1256 8.53657 15.0608 8.43978 15.0164C8.34298 14.972 8.23827 14.9488 8.13231 14.9485C8.05415 14.9484 7.97646 14.961 7.90205 14.9856L6.54549 15.4311C6.47125 15.4556 6.39286 15.4638 6.31536 15.4552C6.23786 15.4466 6.16296 15.4214 6.09546 15.3812C6.02796 15.341 5.96936 15.2867 5.92341 15.2218C5.87747 15.1569 5.84519 15.0828 5.82866 15.0042L5.52481 13.5703C5.49304 13.4243 5.42146 13.2906 5.3185 13.1851C5.21554 13.0795 5.08549 13.0065 4.94364 12.9747L4.88007 12.9602L4.35547 13.7541L4.6478 13.8196L4.93914 15.1947C4.98106 15.3925 5.06257 15.579 5.17846 15.7425C5.29434 15.9059 5.44204 16.0425 5.6121 16.1437C5.78216 16.2449 5.97084 16.3083 6.16605 16.3299C6.36125 16.3516 6.55869 16.3309 6.74572 16.2694L8.04371 15.8384L8.96627 16.8826C9.1248 17.0587 9.32331 17.1913 9.54394 17.2687L9.99946 16.5806L10.459 17.2733C10.6853 17.1969 10.8891 17.0625 11.0512 16.8826L11.9707 15.842Z" fill="#7C3AED"/>
<path d="M8.69408 15.2066C8.62293 15.1256 8.53619 15.0609 8.43939 15.0164C8.3426 14.972 8.23788 14.9488 8.13193 14.9485C8.05377 14.9485 7.97608 14.961 7.90166 14.9857L6.5451 15.4311C6.47087 15.4556 6.39248 15.4638 6.31498 15.4552C6.23748 15.4467 6.16257 15.4215 6.09508 15.3813C6.02758 15.3411 5.96897 15.2868 5.92303 15.2218C5.87708 15.1569 5.84481 15.0828 5.82828 15.0042L5.67811 14.293L1.65698 20.216L3.97415 20.0565L4.61939 22.3555L9.13508 15.7057L8.69408 15.2066ZM14.3215 14.295L14.1714 15.0063C14.1549 15.0848 14.1227 15.1589 14.0768 15.2239C14.0309 15.2888 13.9723 15.3431 13.9049 15.3833C13.8374 15.4235 13.7625 15.4487 13.6851 15.4573C13.6076 15.4659 13.5293 15.4577 13.4551 15.4332L12.0985 14.9877C11.96 14.9421 11.8116 14.9384 11.6711 14.9772C11.5306 15.016 11.4039 15.0956 11.3061 15.2066L10.8651 15.7057L15.3808 22.3555L16.0255 20.0565L18.3432 20.216L14.3215 14.295Z" fill="#8B5CF6"/>
<path d="M9.13508 15.7057L8.69407 15.2066C8.62292 15.1256 8.53618 15.0609 8.43939 15.0164C8.34259 14.972 8.23788 14.9488 8.13192 14.9485C8.05376 14.9485 7.97607 14.961 7.90166 14.9857L6.5451 15.4311C6.47086 15.4556 6.39247 15.4638 6.31497 15.4552C6.23747 15.4467 6.16257 15.4215 6.09507 15.3813C6.02757 15.3411 5.96897 15.2868 5.92302 15.2218C5.87708 15.1569 5.8448 15.0828 5.82827 15.0042L5.6781 14.293L4.97729 15.3253C5.09074 15.6921 5.34066 15.9975 5.67222 16.1745C6.00378 16.3515 6.38989 16.3856 6.74583 16.2694L8.04382 15.8384L8.60997 16.4795L9.13558 15.7052L9.13508 15.7057ZM13.2718 16.2694C13.6244 16.3852 14.007 16.3534 14.3372 16.181C14.6673 16.0085 14.9184 15.7092 15.0364 15.3475L14.3215 14.295L14.1714 15.0063C14.1549 15.0848 14.1227 15.1589 14.0768 15.2239C14.0309 15.2888 13.9723 15.3431 13.9049 15.3833C13.8374 15.4235 13.7625 15.4487 13.6851 15.4573C13.6076 15.4659 13.5293 15.4577 13.455 15.4332L12.0985 14.9877C11.9599 14.9421 11.8116 14.9384 11.6711 14.9772C11.5306 15.016 11.4039 15.0956 11.3061 15.2066L10.8651 15.7057L11.3972 16.4898L11.9708 15.841L13.2718 16.2694Z" fill="#A78BFA"/>
<path d="M15.1519 3.50662L16.543 3.81993C16.6326 3.84024 16.7172 3.87961 16.7913 3.93551C16.8654 3.99142 16.9273 4.06265 16.9732 4.14464C17.0191 4.22663 17.0479 4.31759 17.0578 4.4117C17.0676 4.50581 17.0584 4.60101 17.0305 4.69122L16.5985 6.09003C16.5602 6.21403 16.5572 6.34676 16.5899 6.47247C16.6225 6.59817 16.6895 6.71158 16.7827 6.79925L17.834 7.78771C17.9019 7.85146 17.9561 7.92914 17.9932 8.01575C18.0303 8.10237 18.0495 8.19602 18.0495 8.29071C18.0495 8.38541 18.0303 8.47906 17.9932 8.56567C17.9561 8.65229 17.9019 8.72996 17.834 8.79372L16.7827 9.78269C16.6894 9.87032 16.6225 9.98373 16.5898 10.1095C16.5571 10.2352 16.5602 10.3679 16.5985 10.4919L17.0305 11.8907C17.0583 11.9809 17.0676 12.0761 17.0577 12.1701C17.0479 12.2642 17.0191 12.3551 16.9732 12.4371C16.9273 12.519 16.8653 12.5902 16.7913 12.6461C16.7172 12.7019 16.6326 12.7412 16.543 12.7615L15.1519 13.0753C15.0286 13.1031 14.9156 13.1668 14.8263 13.2589C14.737 13.3509 14.6753 13.4674 14.6483 13.5946L14.3439 15.0285C14.3244 15.121 14.2864 15.2083 14.2323 15.2848C14.1781 15.3613 14.1091 15.4253 14.0296 15.4727C13.9501 15.52 13.8619 15.5498 13.7706 15.5599C13.6793 15.5701 13.587 15.5605 13.4995 15.5318L12.1429 15.0863C12.0227 15.0466 11.8939 15.0434 11.772 15.0771C11.65 15.1108 11.54 15.1799 11.4551 15.2763L10.496 16.3602C10.4342 16.4302 10.3589 16.4861 10.275 16.5244C10.191 16.5627 10.1003 16.5824 10.0085 16.5824C9.91666 16.5824 9.82588 16.5627 9.74192 16.5244C9.65796 16.4861 9.58268 16.4302 9.5209 16.3602L8.56179 15.2763C8.47688 15.1799 8.3669 15.1108 8.24495 15.0771C8.12301 15.0434 7.99424 15.0466 7.874 15.0863L6.51744 15.5318C6.42996 15.5605 6.33761 15.5701 6.24632 15.5599C6.15502 15.5498 6.0668 15.52 5.9873 15.4727C5.90779 15.4253 5.83877 15.3613 5.78464 15.2848C5.73051 15.2083 5.69248 15.121 5.67297 15.0285L5.36862 13.5946C5.34165 13.4674 5.27987 13.3509 5.19061 13.2589C5.10135 13.1668 4.98836 13.1031 4.86504 13.0753L3.47394 12.7615C3.3843 12.7412 3.29973 12.7019 3.22566 12.6461C3.15158 12.5902 3.08962 12.519 3.04373 12.4371C2.99785 12.3551 2.96905 12.2642 2.95917 12.1701C2.9493 12.0761 2.95856 11.9809 2.98638 11.8907L3.41838 10.4919C3.45673 10.3679 3.45977 10.2352 3.42711 10.1095C3.39446 9.98373 3.32749 9.87032 3.23417 9.78269L2.18296 8.79372C2.11506 8.72996 2.06081 8.65229 2.0237 8.56567C1.98658 8.47906 1.96741 8.38541 1.96741 8.29071C1.96741 8.19602 1.98658 8.10237 2.0237 8.01575C2.06081 7.92914 2.11506 7.85146 2.18296 7.78771L3.23417 6.79925C3.32744 6.71158 3.39437 6.59817 3.42702 6.47247C3.45967 6.34676 3.45667 6.21403 3.41838 6.09003L2.98638 4.69122C2.95856 4.60101 2.94929 4.50581 2.95916 4.4117C2.96903 4.31759 2.99783 4.22663 3.04371 4.14464C3.08959 4.06265 3.15155 3.99142 3.22563 3.93551C3.29971 3.87961 3.38428 3.84024 3.47394 3.81993L4.86504 3.50662C4.98836 3.47881 5.10135 3.41511 5.19061 3.32307C5.27987 3.23103 5.34165 3.11451 5.36862 2.98735L5.67297 1.55293C5.69253 1.46045 5.73061 1.3732 5.78477 1.29678C5.83892 1.22035 5.90795 1.15643 5.98745 1.1091C6.06694 1.06177 6.15515 1.03209 6.24641 1.02194C6.33768 1.01179 6.42999 1.02141 6.51744 1.05018L7.874 1.49563C7.99426 1.53505 8.12296 1.53811 8.24486 1.50445C8.36675 1.47079 8.47674 1.40181 8.56179 1.30568L9.5209 0.22173C9.58276 0.151869 9.65807 0.0960709 9.74202 0.0578941C9.82597 0.0197172 9.91671 0 10.0085 0C10.1002 0 10.1909 0.0197172 10.2749 0.0578941C10.3588 0.0960709 10.4341 0.151869 10.496 0.22173L11.4551 1.30568C11.5402 1.40181 11.6502 1.47079 11.7721 1.50445C11.894 1.53811 12.0226 1.53505 12.1429 1.49563L13.4995 1.05018C13.5869 1.02141 13.6792 1.01179 13.7705 1.02194C13.8618 1.03209 13.95 1.06177 14.0295 1.1091C14.109 1.15643 14.178 1.22035 14.2321 1.29678C14.2863 1.3732 14.3244 1.46045 14.3439 1.55293L14.6483 2.98735C14.6753 3.11451 14.737 3.23103 14.8263 3.32307C14.9156 3.41511 15.0286 3.47881 15.1519 3.50662Z" fill="#6D28D9"/>
<path d="M15.2196 8.29303C15.2185 9.28871 14.9492 10.2645 14.4416 11.1115C13.934 11.9585 13.2082 12.6435 12.3451 13.0899C11.482 13.5364 10.5155 13.7267 9.55361 13.6398C8.59169 13.5529 7.67212 13.192 6.89749 12.5976C6.12286 12.0031 5.52365 11.1984 5.16671 10.2733C4.80977 9.34812 4.70914 8.33889 4.87605 7.3582C5.04296 6.37751 5.47085 5.46392 6.11197 4.71938C6.75309 3.97484 7.58223 3.42862 8.50687 3.14168C8.99379 2.98978 9.49988 2.91324 10.0086 2.91457C10.6933 2.91464 11.3713 3.05384 12.0038 3.32422C12.6364 3.5946 13.211 3.99086 13.695 4.49035C14.1789 4.98984 14.5626 5.58277 14.8242 6.23525C15.0858 6.88774 15.2202 7.58698 15.2196 8.29303Z" fill="#A78BFA"/>
<path d="M15.2195 8.29303C15.22 9.20318 14.996 10.0985 14.5687 10.8949C14.1414 11.6913 13.5247 12.3625 12.7767 12.8456C12.2898 12.9975 11.7837 13.0741 11.2749 13.0727C10.1431 13.0734 9.04182 12.6942 8.13749 11.9924C7.23315 11.2906 6.57493 10.3043 6.26227 9.18263C5.94962 8.06095 5.99952 6.86482 6.40445 5.77498C6.80937 4.68513 7.54732 3.76081 8.50676 3.14168C8.99368 2.98978 9.49977 2.91324 10.0085 2.91457C10.6932 2.91464 11.3712 3.05384 12.0037 3.32422C12.6363 3.5946 13.2109 3.99086 13.6948 4.49035C14.1788 4.98984 14.5625 5.58277 14.8241 6.23525C15.0857 6.88774 15.2201 7.58698 15.2195 8.29303Z" fill="#8B5CF6"/>
<path d="M10.3879 11.6083C10.2884 11.6083 10.1929 11.5675 10.1225 11.4949C10.0521 11.4223 10.0125 11.3239 10.0125 11.2212V6.42084L9.04438 7.1027C9.0037 7.13252 8.95766 7.15368 8.90895 7.16494C8.86024 7.1762 8.80984 7.17732 8.7607 7.16825C8.71156 7.15918 8.66467 7.1401 8.62278 7.11212C8.58088 7.08414 8.54481 7.04783 8.51668 7.00531C8.48856 6.96278 8.46894 6.9149 8.45897 6.86446C8.44901 6.81403 8.4489 6.76205 8.45865 6.71157C8.4684 6.66108 8.48781 6.61312 8.51576 6.57046C8.5437 6.52781 8.57962 6.49134 8.6214 6.46317L10.1762 5.36786C10.2326 5.32812 10.2985 5.30501 10.3667 5.30103C10.435 5.29705 10.5029 5.31235 10.5634 5.34528C10.6238 5.37821 10.6743 5.42752 10.7096 5.4879C10.7448 5.54827 10.7634 5.61742 10.7634 5.68789V11.2212C10.7634 11.3239 10.7238 11.4223 10.6534 11.4949C10.583 11.5675 10.4875 11.6083 10.3879 11.6083Z" fill="#F5F3FF"/>
</svg>
