<svg width="20" height="20" viewBox="0 0 20 20" fill="none" xmlns="http://www.w3.org/2000/svg">
<path d="M9.95296 1.31785V1.38151H4.92078V1.31785L5.25546 0H9.61828L9.95296 1.31785Z" fill="#EDE9FE"/>
<path d="M0 1.31787H14.8742V20H0V1.31787Z" fill="#4C1D95"/>
<path d="M1.34399 2.62366H13.5283V18.6968H1.34399V2.62366Z" fill="#C4B5FD"/>
<path d="M13.5283 2.62366V17.7118H5.02238C4.74673 17.7118 4.47378 17.6592 4.21913 17.5569C3.96448 17.4547 3.73312 17.3048 3.53827 17.1159C3.34342 16.927 3.18889 16.7027 3.08353 16.4559C2.97816 16.209 2.92402 15.9445 2.92419 15.6774V2.62366H13.5283Z" fill="#A78BFA"/>
<path d="M3.00588 4.20044C2.9073 4.20044 2.81276 4.23835 2.74301 4.30586C2.67327 4.37336 2.63403 4.46492 2.63391 4.56044V6.40388C2.63403 6.4994 2.67327 6.59096 2.74301 6.65847C2.81276 6.72597 2.9073 6.76388 3.00588 6.76388H4.90831C5.00685 6.76388 5.10134 6.72595 5.17102 6.65844C5.24069 6.59093 5.27983 6.49936 5.27983 6.40388V4.59227C5.27983 4.54078 5.26936 4.48979 5.24901 4.44222C5.22866 4.39466 5.19884 4.35144 5.16124 4.31505C5.12364 4.27866 5.07902 4.24981 5.0299 4.23014C4.98079 4.21048 4.92816 4.20038 4.87502 4.20044H3.00588ZM3.00588 9.32474C2.90722 9.32474 2.81261 9.36271 2.74286 9.43031C2.6731 9.4979 2.63391 9.58958 2.63391 9.68517V11.5286C2.63403 11.6241 2.67327 11.7157 2.74301 11.7832C2.81276 11.8507 2.9073 11.8886 3.00588 11.8886H4.90831C5.00685 11.8886 5.10134 11.8507 5.17102 11.7832C5.24069 11.7157 5.27983 11.6241 5.27983 11.5286V9.717C5.27983 9.61297 5.23718 9.51319 5.16127 9.43963C5.08535 9.36607 4.98239 9.32474 4.87502 9.32474H3.00588ZM3.00588 14.3751C2.95705 14.375 2.90869 14.3843 2.86356 14.4023C2.81844 14.4204 2.77743 14.4469 2.74288 14.4804C2.70834 14.5138 2.68093 14.5535 2.66223 14.5972C2.64354 14.6409 2.63391 14.6878 2.63391 14.7351V16.5807C2.63403 16.6762 2.67327 16.7677 2.74301 16.8352C2.81276 16.9027 2.9073 16.9407 3.00588 16.9407H4.90831C5.00685 16.9407 5.10134 16.9027 5.17102 16.8352C5.24069 16.7677 5.27983 16.6761 5.27983 16.5807V14.7669C5.27983 14.7154 5.26936 14.6644 5.24901 14.6168C5.22866 14.5693 5.19884 14.5261 5.16124 14.4897C5.12364 14.4533 5.07902 14.4244 5.0299 14.4048C4.98079 14.3851 4.92816 14.375 4.87502 14.3751H3.00588Z" fill="#6D28D9"/>
<path d="M11.9712 5.79312H9.34657C9.25828 5.79312 9.1736 5.75914 9.11117 5.69864C9.04874 5.63814 9.01367 5.55609 9.01367 5.47054C9.01367 5.38499 9.04874 5.30294 9.11117 5.24244C9.1736 5.18195 9.25828 5.14796 9.34657 5.14796H11.9712C12.0595 5.14796 12.1442 5.18195 12.2066 5.24244C12.269 5.30294 12.3041 5.38499 12.3041 5.47054C12.3041 5.55609 12.269 5.63814 12.2066 5.69864C12.1442 5.75914 12.0595 5.79312 11.9712 5.79312ZM8.00253 5.79312H6.65315C6.56486 5.79312 6.48019 5.75914 6.41775 5.69864C6.35532 5.63814 6.32025 5.55609 6.32025 5.47054C6.32025 5.38499 6.35532 5.30294 6.41775 5.24244C6.48019 5.18195 6.56486 5.14796 6.65315 5.14796H8.00253C8.09082 5.14796 8.17549 5.18195 8.23793 5.24244C8.30036 5.30294 8.33543 5.38499 8.33543 5.47054C8.33543 5.55609 8.30036 5.63814 8.23793 5.69864C8.17549 5.75914 8.09082 5.79312 8.00253 5.79312ZM11.9712 10.788H10.6706C10.5824 10.788 10.4977 10.754 10.4352 10.6935C10.3728 10.633 10.3377 10.5509 10.3377 10.4654C10.3377 10.3798 10.3728 10.2978 10.4352 10.2373C10.4977 10.1768 10.5824 10.1428 10.6706 10.1428H11.9712C12.0595 10.1428 12.1442 10.1768 12.2066 10.2373C12.269 10.2978 12.3041 10.3798 12.3041 10.4654C12.3041 10.5509 12.269 10.633 12.2066 10.6935C12.1442 10.754 12.0595 10.788 11.9712 10.788ZM9.3155 10.788H6.65227C6.56397 10.788 6.4793 10.754 6.41687 10.6935C6.35444 10.633 6.31936 10.5509 6.31936 10.4654C6.31936 10.3798 6.35444 10.2978 6.41687 10.2373C6.4793 10.1768 6.56397 10.1428 6.65227 10.1428H9.3155C9.40379 10.1428 9.48847 10.1768 9.5509 10.2373C9.61333 10.2978 9.6484 10.3798 9.6484 10.4654C9.6484 10.5509 9.61333 10.633 9.5509 10.6935C9.48847 10.754 9.40379 10.788 9.3155 10.788ZM4.18522 6.04688H4.17235C4.12828 6.04515 4.08501 6.03499 4.04501 6.01698C4.00502 5.99897 3.96909 5.97346 3.93932 5.94194L3.52696 5.50323C3.49752 5.47197 3.47473 5.43539 3.45988 5.39559C3.44503 5.35579 3.43842 5.31355 3.44042 5.27127C3.44242 5.229 3.45299 5.18752 3.47153 5.1492C3.49008 5.11089 3.51622 5.07648 3.54849 5.04796C3.58075 5.01944 3.6185 4.99735 3.65957 4.98296C3.70064 4.96857 3.74424 4.96216 3.78787 4.9641C3.8315 4.96604 3.8743 4.97628 3.91385 4.99425C3.95339 5.01222 3.98889 5.03756 4.01833 5.06882L4.20387 5.26538L5.94562 3.68301C6.00996 3.62455 6.09562 3.59325 6.18378 3.59599C6.27193 3.59873 6.35535 3.6353 6.41568 3.69764C6.47601 3.75998 6.50832 3.84299 6.50549 3.92841C6.50266 4.01383 6.46493 4.09466 6.40059 4.15312L4.41293 5.95957C4.35131 6.01577 4.26984 6.047 4.18522 6.04688ZM4.18522 11.1712H4.17235C4.12828 11.1695 4.08501 11.1593 4.04501 11.1413C4.00502 11.1233 3.96909 11.0978 3.93932 11.0662L3.52696 10.6275C3.49752 10.5963 3.47473 10.5597 3.45988 10.5199C3.44503 10.4801 3.43842 10.4378 3.44042 10.3956C3.44242 10.3533 3.45299 10.3118 3.47153 10.2735C3.49008 10.2352 3.51622 10.2008 3.54849 10.1723C3.58075 10.1437 3.6185 10.1217 3.65957 10.1073C3.70064 10.0929 3.74424 10.0865 3.78787 10.0884C3.8315 10.0903 3.8743 10.1006 3.91385 10.1186C3.95339 10.1365 3.98889 10.1619 4.01833 10.1931L4.20387 10.3897L5.94562 8.80731C6.00996 8.74885 6.09562 8.71755 6.18378 8.72029C6.27193 8.72303 6.35535 8.7596 6.41568 8.82194C6.47601 8.88428 6.50832 8.96729 6.50549 9.05271C6.50266 9.13813 6.46493 9.21896 6.40059 9.27742L4.41293 11.0839C4.35133 11.1401 4.26985 11.1713 4.18522 11.1712ZM4.18522 16.2211H4.17235C4.12828 16.2193 4.08501 16.2092 4.04501 16.1912C4.00502 16.1732 3.96909 16.1477 3.93932 16.1161L3.52563 15.6774C3.49446 15.6465 3.47003 15.6097 3.45381 15.5694C3.43758 15.5291 3.42988 15.4861 3.43117 15.4429C3.43246 15.3996 3.44271 15.3571 3.4613 15.3178C3.4799 15.2784 3.50647 15.2432 3.53944 15.214C3.5724 15.1848 3.61108 15.1624 3.65317 15.148C3.69527 15.1336 3.73992 15.1275 3.78447 15.1302C3.82903 15.1329 3.87257 15.1442 3.91252 15.1635C3.95246 15.1828 3.98799 15.2097 4.017 15.2426L4.20253 15.4391L5.94429 13.8563C6.00925 13.8012 6.09379 13.7727 6.18004 13.7768C6.26629 13.781 6.34751 13.8174 6.40655 13.8785C6.46559 13.9395 6.49784 14.0204 6.49648 14.1041C6.49512 14.1878 6.46026 14.2677 6.39926 14.3269L4.4116 16.1333C4.3504 16.1894 4.26945 16.2208 4.18522 16.2211ZM12.0582 15.9695H9.43401C9.34572 15.9695 9.26105 15.9355 9.19862 15.875C9.13618 15.8145 9.10111 15.7324 9.10111 15.6469C9.10111 15.5613 9.13618 15.4793 9.19862 15.4188C9.26105 15.3583 9.34572 15.3243 9.43401 15.3243H12.0582C12.1465 15.3243 12.2312 15.3583 12.2936 15.4188C12.356 15.4793 12.3911 15.5613 12.3911 15.6469C12.3911 15.7324 12.356 15.8145 12.2936 15.875C12.2312 15.9355 12.1465 15.9695 12.0582 15.9695ZM8.08819 15.9695H6.74015C6.65186 15.9695 6.56719 15.9355 6.50475 15.875C6.44232 15.8145 6.40725 15.7324 6.40725 15.6469C6.40725 15.5613 6.44232 15.4793 6.50475 15.4188C6.56719 15.3583 6.65186 15.3243 6.74015 15.3243H8.08819C8.17649 15.3243 8.26116 15.3583 8.32359 15.4188C8.38602 15.4793 8.4211 15.5613 8.4211 15.6469C8.4211 15.7324 8.38602 15.8145 8.32359 15.875C8.26116 15.9355 8.17649 15.9695 8.08819 15.9695Z" fill="#EDE9FE"/>
<path d="M20 8.86882C20 8.95437 19.965 9.03642 19.9025 9.09691C19.8401 9.15741 19.7554 9.1914 19.6671 9.1914C19.5788 9.1914 19.4942 9.15741 19.4317 9.09691C19.3693 9.03642 19.3342 8.95437 19.3342 8.86882V5.91828C19.312 5.84516 19.2233 5.67312 18.8326 5.67312H18.498V5.08387C18.4987 5.06513 18.4972 5.04637 18.4935 5.02796H18.8331C19.0982 4.99734 19.3654 5.06502 19.5811 5.21739C19.7968 5.36977 19.945 5.59557 19.996 5.84946L20 8.86882ZM18.5219 16.6882L17.5143 20L16.5023 16.6882H18.5219Z" fill="#6D28D9"/>
<path d="M16.5023 8.86877H18.5219V16.6881H16.5023V8.86877Z" fill="#C4B5FD"/>
<path d="M18.5223 5.08384V8.86879H16.5027V5.08384C16.5027 4.82433 16.6091 4.57544 16.7985 4.39194C16.9878 4.20844 17.2447 4.10535 17.5125 4.10535C17.7803 4.10535 18.0372 4.20844 18.2265 4.39194C18.4159 4.57544 18.5223 4.82433 18.5223 5.08384Z" fill="#6D28D9"/>
<path d="M18.5219 16.6882L17.5143 20.0001V16.6882H18.5219Z" fill="#7C3AED"/>
<path d="M17.5143 8.86877H18.5219V16.6881H17.5143V8.86877Z" fill="#A78BFA"/>
<path d="M18.5224 5.08389V8.86883H17.5148V4.10754C17.7718 4.1074 18.0191 4.20277 18.2057 4.374C18.3923 4.54523 18.5041 4.77929 18.5179 5.02797C18.5216 5.04639 18.5231 5.06515 18.5224 5.08389Z" fill="#7C3AED"/>
</svg>
