<svg width="20" height="18" viewBox="0 0 20 18" fill="none" xmlns="http://www.w3.org/2000/svg">
<path d="M13.479 16.4294V18H6.52014V16.4294H8.18029L8.47275 13.7739L8.54156 13.1415V13.1289H11.4533L11.4576 13.1415L11.5264 13.7739L11.8188 16.4294H13.479Z" fill="#8B5CF6"/>
<path d="M11.5264 13.7739H8.47278L8.54159 13.1415V13.1289H11.4533L11.4576 13.1415L11.5264 13.7739Z" fill="#7C3AED"/>
<path d="M11.8171 16.4281H6.51929V17.9983H13.4798V16.4281H11.8171Z" fill="#A78BFA"/>
<path d="M19.2895 0H0.709647C0.521279 0.00044363 0.340781 0.0736263 0.207746 0.203496C0.0747107 0.333365 -5.5084e-07 0.509318 0 0.692759V12.4479C-5.5084e-07 12.6313 0.0747107 12.8073 0.207746 12.9371C0.340781 13.067 0.521279 13.1402 0.709647 13.1406H19.2465C19.3455 13.1407 19.4435 13.1217 19.5349 13.0849C19.6264 13.048 19.7094 12.994 19.7794 12.9258C19.8494 12.8577 19.9049 12.7768 19.9428 12.6877C19.9806 12.5987 20.0001 12.5032 20 12.4068V0.692759C20 0.509173 19.9252 0.333094 19.7919 0.2032C19.6587 0.0733068 19.478 0.00022199 19.2895 0Z" fill="#C4B5FD"/>
<path d="M1.32031 1.20044H18.6787V10.7625H1.32031V1.20044Z" fill="#4C1D95"/>
<path d="M18.6787 1.20044V9.89134H5.21695C4.53494 9.891 3.88096 9.62701 3.3987 9.15737C2.91644 8.68773 2.64536 8.05086 2.64502 7.38668V1.20044H18.6787Z" fill="#6D28D9"/>
<path d="M16.0553 7.92692C16.0608 7.91351 16.068 7.90085 16.0768 7.88922V7.88504C16.1979 7.68388 16.2959 7.47039 16.3692 7.2484C16.5687 6.62673 16.5649 5.96004 16.3582 5.3406C16.1515 4.72116 15.7522 4.1796 15.2156 3.79087C14.679 3.40214 14.0315 3.18546 13.3629 3.17084C12.6942 3.15621 12.0374 3.34435 11.4834 3.70922C11.1008 3.95926 10.7792 4.28812 10.5415 4.67254C10.3214 5.0248 10.1747 5.41584 10.1098 5.82333C10.045 6.23081 10.0632 6.64676 10.1634 7.04739C10.2637 7.44802 10.444 7.82548 10.6941 8.15822C10.9442 8.49096 11.2592 8.77244 11.621 8.98658C12.1356 9.27955 12.7196 9.4369 13.3156 9.44312C13.6526 9.44557 13.9875 9.39028 14.3048 9.27977C14.5305 9.19952 14.7492 9.10147 14.9585 8.98658L14.9628 8.99077L15.8875 9.89127H18.0681C17.1305 8.98239 16.0553 7.93111 16.0553 7.92692Z" fill="#4C1D95"/>
<path d="M19.625 11.9319C19.5921 12.0626 19.522 12.1816 19.4229 12.2753C19.2779 12.4147 19.0825 12.4929 18.8788 12.4929C18.6751 12.4929 18.4796 12.4147 18.3347 12.2753L16.7821 10.7633H18.6788V10.4911L19.4229 11.2157C19.5189 11.3068 19.5883 11.4212 19.6238 11.5471C19.6593 11.6729 19.6597 11.8058 19.625 11.9319Z" fill="#DDD6FE"/>
<path d="M18.6787 10.4902V10.7624H16.782L15.8875 9.89124H18.068C18.283 10.1007 18.4938 10.3059 18.6787 10.4902Z" fill="#5B21B6"/>
<path d="M19.7734 10.8948L16.4024 7.61197C16.8092 6.95622 16.9555 6.17809 16.8136 5.4245C16.6717 4.6709 16.2513 3.99399 15.632 3.52154C15.0126 3.04909 14.2371 2.81381 13.4518 2.8601C12.6665 2.9064 11.9257 3.23108 11.3694 3.77284C10.8131 4.3146 10.4797 5.03596 10.4322 5.80072C10.3846 6.56549 10.6262 7.32074 11.1114 7.9239C11.5965 8.52706 12.2916 8.93639 13.0654 9.07461C13.8393 9.21283 14.6383 9.07037 15.3117 8.67414L18.6827 11.9574C18.8274 12.0982 19.0235 12.1773 19.2281 12.1773C19.4326 12.1773 19.6287 12.0982 19.7734 11.9574C19.9181 11.8165 19.9994 11.6254 19.9994 11.4261C19.9994 11.2268 19.9181 11.0357 19.7734 10.8948Z" fill="#A78BFA"/>
<path d="M13.6433 9.12521C15.4233 9.12521 16.8663 7.71993 16.8663 5.98643C16.8663 4.25293 15.4233 2.84766 13.6433 2.84766C11.8632 2.84766 10.4202 4.25293 10.4202 5.98643C10.4202 7.71993 11.8632 9.12521 13.6433 9.12521Z" fill="#8B5CF6"/>
<path d="M19.7734 10.8948L16.3998 7.60864C16.2648 7.82476 16.1041 8.02466 15.9211 8.20423C15.8326 8.29011 15.7392 8.37095 15.6411 8.44632L18.8595 11.5797C19.0041 11.7204 19.2002 11.7995 19.4046 11.7995C19.6091 11.7995 19.8051 11.7204 19.9497 11.5797L19.9902 11.5378C20.0083 11.4216 19.9982 11.3028 19.9605 11.1911C19.9229 11.0795 19.8588 10.978 19.7734 10.8948Z" fill="#C4B5FD"/>
<path d="M13.6432 2.84766C12.8752 2.84689 12.1323 3.11439 11.5496 3.60157C11.1416 4.23739 10.9808 4.99441 11.0963 5.73567C11.2118 6.47692 11.5959 7.15343 12.1792 7.64279C12.7624 8.13215 13.5063 8.40203 14.2762 8.40359C15.0461 8.40516 15.7911 8.1383 16.3764 7.65132C16.6817 7.17617 16.8508 6.63008 16.8661 6.06978C16.8814 5.50948 16.7423 4.95542 16.4633 4.46516C16.1844 3.9749 15.7757 3.56632 15.2798 3.28188C14.7839 2.99743 14.2188 2.8475 13.6432 2.84766Z" fill="#C4B5FD"/>
</svg>
