<svg width="24" height="12" viewBox="0 0 24 12" fill="none" xmlns="http://www.w3.org/2000/svg">
<path d="M23.7512 7.10485L21.689 3.53772C21.638 3.44974 21.5636 3.37653 21.4734 3.32569C21.3832 3.27486 21.2805 3.24825 21.176 3.24863H17.9862V0.303793C17.986 0.223302 17.9527 0.146181 17.8937 0.0892646C17.8347 0.0323482 17.7548 0.000258402 17.6713 0H4.92746C4.84402 0.000258402 4.76408 0.0323482 4.70508 0.0892646C4.64608 0.146181 4.61282 0.223302 4.61255 0.303793V9.91102C4.61255 10.028 4.66071 10.1401 4.74644 10.2228C4.83217 10.3055 4.94844 10.352 5.06968 10.352H23.7258C23.7618 10.3521 23.7976 10.3454 23.8309 10.3321C23.8643 10.3189 23.8945 10.2994 23.92 10.2748C23.9455 10.2502 23.9657 10.221 23.9795 10.1888C23.9932 10.1567 24.0002 10.1222 24.0001 10.0874V8.03583C24.0002 7.71018 23.9145 7.38983 23.7512 7.10485Z" fill="#8B5CF6"/>
<path d="M24.0002 8.03574V9.40771H20.0201C19.7744 9.40771 19.5387 9.31354 19.365 9.14594C19.1912 8.97833 19.0936 8.751 19.0936 8.51397V3.24854H21.1761C21.2806 3.24816 21.3833 3.27477 21.4735 3.3256C21.5637 3.37644 21.6382 3.44965 21.6891 3.53763L23.7513 7.10476C23.9147 7.38974 24.0003 7.71008 24.0002 8.03574Z" fill="#A78BFA"/>
<path d="M22.6845 10.3535C22.6863 10.6907 22.5778 11.0199 22.3747 11.2943C22.1674 11.582 21.8703 11.7983 21.5267 11.9116C21.1831 12.025 20.8109 12.0295 20.4645 11.9244C20.118 11.8194 19.8154 11.6104 19.6008 11.3278C19.3861 11.0452 19.2707 10.7038 19.2712 10.3535C19.2712 9.91688 19.451 9.49812 19.7711 9.18936C20.0912 8.88061 20.5252 8.70715 20.9779 8.70715C21.4305 8.70715 21.8646 8.88061 22.1846 9.18936C22.5047 9.49812 22.6845 9.91688 22.6845 10.3535Z" fill="#A5B4FC"/>
<path d="M17.9862 0.303793V9.4568H7.59453C7.349 9.4568 7.10587 9.41014 6.87903 9.3195C6.6522 9.22886 6.44608 9.096 6.27247 8.92852C6.09885 8.76103 5.96113 8.5622 5.86717 8.34337C5.77321 8.12454 5.72485 7.89 5.72485 7.65315V0H17.6713C17.7547 0.000258402 17.8347 0.0323482 17.8936 0.0892646C17.9526 0.146181 17.9859 0.223302 17.9862 0.303793Z" fill="#A78BFA"/>
<path d="M22.6845 10.3535C22.6863 10.6907 22.5778 11.0199 22.3747 11.2943C22.2248 11.338 22.069 11.3595 21.9125 11.358C21.4599 11.3579 21.0259 11.1844 20.7058 10.8756C20.3858 10.5669 20.206 10.1482 20.2058 9.71163C20.2043 9.37066 20.3145 9.03795 20.5207 8.76105C20.7747 8.69386 21.0414 8.68413 21.2999 8.73261C21.5584 8.7811 21.8018 8.8865 22.0112 9.0406C22.2206 9.19471 22.3903 9.39335 22.5071 9.62107C22.6239 9.8488 22.6846 10.0994 22.6845 10.3535Z" fill="#C4B5FD"/>
<path d="M11.6778 10.3535C11.6775 10.6601 11.5885 10.9605 11.4208 11.2209C11.2531 11.4813 11.0134 11.6914 10.7286 11.8275C10.4438 11.9635 10.1253 12.0202 9.80897 11.991C9.49261 11.9619 9.19097 11.8481 8.93802 11.6625C8.68507 11.477 8.49086 11.2269 8.37727 10.9406C8.26368 10.6543 8.23522 10.343 8.29509 10.042C8.35496 9.74087 8.50079 9.4619 8.71615 9.23645C8.9315 9.011 9.20784 8.84804 9.51402 8.76592C9.66211 8.72217 9.81629 8.70069 9.97116 8.70223C10.1956 8.70242 10.4179 8.7453 10.6252 8.82841C10.8325 8.91152 11.0208 9.03324 11.1793 9.1866C11.3378 9.33996 11.4634 9.52195 11.5489 9.72218C11.6345 9.9224 11.6783 10.1369 11.6778 10.3535Z" fill="#A5B4FC"/>
<path d="M11.6778 10.3535C11.6771 10.6903 11.5689 11.0188 11.3679 11.2943C11.2181 11.338 11.0623 11.3595 10.9057 11.358C10.4531 11.3578 10.0191 11.1843 9.69911 10.8756C9.37908 10.5669 9.19924 10.1482 9.1991 9.7116C9.19831 9.37227 9.30851 9.04133 9.51401 8.76592C9.6621 8.72217 9.81628 8.70069 9.97115 8.70223C10.1956 8.70242 10.4179 8.7453 10.6252 8.82841C10.8325 8.91152 11.0208 9.03324 11.1793 9.1866C11.3378 9.33996 11.4634 9.52195 11.5489 9.72218C11.6345 9.9224 11.6782 10.1369 11.6778 10.3535Z" fill="#C4B5FD"/>
<path d="M6.11949 7.89271H1.28404C1.183 7.89271 1.08611 7.854 1.01467 7.78508C0.943227 7.71616 0.903092 7.62269 0.903092 7.52522C0.903092 7.42776 0.943227 7.33428 1.01467 7.26537C1.08611 7.19645 1.183 7.15773 1.28404 7.15773H6.11949C6.22052 7.15773 6.31742 7.19645 6.38886 7.26537C6.4603 7.33428 6.50043 7.42776 6.50043 7.52522C6.50043 7.62269 6.4603 7.71616 6.38886 7.78508C6.31742 7.854 6.22052 7.89271 6.11949 7.89271ZM9.97211 6.22136H3.22533C3.1243 6.22136 3.0274 6.18264 2.95596 6.11372C2.88452 6.04481 2.84438 5.95133 2.84438 5.85387C2.84438 5.7564 2.88452 5.66293 2.95596 5.59401C3.0274 5.52509 3.1243 5.48638 3.22533 5.48638H9.97211C10.0731 5.48638 10.17 5.52509 10.2415 5.59401C10.3129 5.66293 10.353 5.7564 10.353 5.85387C10.353 5.95133 10.3129 6.04481 10.2415 6.11372C10.17 6.18264 10.0731 6.22136 9.97211 6.22136ZM3.01555 4.281H0.380944C0.279912 4.281 0.183017 4.24228 0.111576 4.17337C0.0401351 4.10445 0 4.01097 0 3.91351C0 3.81604 0.0401351 3.72257 0.111576 3.65365C0.183017 3.58474 0.279912 3.54602 0.380944 3.54602H3.01555C3.11659 3.54602 3.21348 3.58474 3.28492 3.65365C3.35636 3.72257 3.3965 3.81604 3.3965 3.91351C3.3965 4.01097 3.35636 4.10445 3.28492 4.17337C3.21348 4.24228 3.11659 4.281 3.01555 4.281ZM7.23997 2.25097H2.58941C2.48837 2.25097 2.39148 2.21226 2.32004 2.14334C2.2486 2.07442 2.20846 1.98095 2.20846 1.88348C2.20846 1.78602 2.2486 1.69255 2.32004 1.62363C2.39148 1.55471 2.48837 1.51599 2.58941 1.51599H7.23997C7.34101 1.51599 7.4379 1.55471 7.50934 1.62363C7.58078 1.69255 7.62092 1.78602 7.62092 1.88348C7.62092 1.98095 7.58078 2.07442 7.50934 2.14334C7.4379 2.21226 7.34101 2.25097 7.23997 2.25097Z" fill="#A5B4FC"/>
</svg>
