<svg width="20" height="18" viewBox="0 0 20 18" fill="none" xmlns="http://www.w3.org/2000/svg">
<path fill-rule="evenodd" clip-rule="evenodd" d="M4.66441 17.4428C1.4245 16.3238 0.701994 13.7076 0.618629 10.55C0.599197 9.81448 0.615473 9.08348 0.634725 8.34839C2.06495 8.09917 3.43454 7.6402 4.69029 6.8947C5.44733 7.34377 6.21434 7.67429 7.0501 7.93829C7.10827 7.95667 7.1199 8.02824 7.24199 8.02824C7.3011 8.02824 7.28875 8.01175 7.32982 8.02345C7.82203 8.16375 8.23804 8.25978 8.74634 8.34839C8.79265 10.104 8.8316 12.0963 8.31338 13.7743C7.72856 15.6679 6.54956 16.8098 4.71617 17.4428H4.66441ZM7.31251 10.3793C7.27086 10.3368 7.2144 10.313 7.15553 10.313C7.09666 10.313 7.04021 10.3369 6.99857 10.3794L4.14893 13.2899L2.80279 11.9151C2.78219 11.894 2.75773 11.8772 2.73079 11.8658C2.70386 11.8544 2.67499 11.8485 2.64583 11.8485C2.61668 11.8485 2.5878 11.8544 2.56087 11.8658C2.53393 11.8772 2.50946 11.8939 2.48886 11.915C2.4682 11.9361 2.45181 11.9611 2.44062 11.9887C2.42944 12.0163 2.42369 12.0458 2.42369 12.0756C2.42369 12.1055 2.42944 12.135 2.44062 12.1626C2.45181 12.1901 2.4682 12.2152 2.48886 12.2363L3.99185 13.7717C4.01249 13.7928 4.037 13.8095 4.06398 13.821C4.09096 13.8324 4.11988 13.8383 4.14909 13.8383C4.1783 13.8383 4.20722 13.8324 4.2342 13.821C4.26118 13.8095 4.28569 13.7928 4.30633 13.7717L7.31255 10.7004C7.33321 10.6793 7.3496 10.6543 7.36079 10.6267C7.37197 10.5992 7.37772 10.5697 7.37772 10.5398C7.37771 10.51 7.37195 10.4805 7.36076 10.453C7.34957 10.4254 7.33317 10.4004 7.31251 10.3793ZM8.80843 5.37193V3.15767C8.8086 3.11937 8.82358 3.08269 8.85009 3.05561C8.8766 3.02853 8.91251 3.01323 8.95 3.01305H14.2228V5.37193H8.80843ZM14.6672 0.681122C14.6674 0.642822 14.6824 0.606142 14.7089 0.579059C14.7354 0.551976 14.7713 0.536681 14.8088 0.536499H17.3138C17.3513 0.536681 17.3872 0.551976 17.4137 0.579059C17.4402 0.606142 17.4552 0.642822 17.4554 0.681122V5.37193H14.6672V0.681122ZM4.00272 4.16925C4.00272 4.28767 3.90533 4.38227 3.81259 4.43828C3.69077 4.51188 3.54171 4.54578 3.401 4.54578H1.12684C0.986218 4.54578 0.837208 4.51183 0.715475 4.43823C0.622777 4.38223 0.525391 4.28767 0.525391 4.16925V3.85546C0.525391 3.73713 0.622822 3.64262 0.715475 3.58666C0.837253 3.51311 0.986218 3.47916 1.12684 3.47916L3.18607 3.48045C3.22471 3.48745 3.23485 3.49906 3.27917 3.49851L3.82724 3.49413C3.88779 3.51034 3.9878 3.56234 4.00272 3.61264V4.16925Z" fill="#C4B5FD"/>
<path fill-rule="evenodd" clip-rule="evenodd" d="M7.36972 10.321C7.39789 10.3497 7.42024 10.3839 7.43549 10.4214C7.45074 10.459 7.45858 10.4992 7.45858 10.5399C7.45858 10.5805 7.45074 10.6208 7.43549 10.6584C7.42024 10.6959 7.39789 10.73 7.36972 10.7587L4.3635 13.8301C4.33535 13.8588 4.30193 13.8816 4.26515 13.8972C4.22837 13.9128 4.18895 13.9208 4.14914 13.9208C4.10932 13.9208 4.0699 13.9128 4.03312 13.8972C3.99634 13.8816 3.96292 13.8588 3.93477 13.8301L2.43178 12.2947C2.4036 12.2659 2.38126 12.2318 2.36601 12.1942C2.35076 12.1566 2.34291 12.1163 2.34291 12.0757C2.34291 12.035 2.35076 11.9947 2.36601 11.9571C2.38126 11.9196 2.4036 11.8854 2.43178 11.8567C2.54972 11.7356 2.74174 11.7356 2.86001 11.8567L4.14902 13.1732L6.94154 10.321C7.05971 10.2002 7.25173 10.2002 7.36972 10.321ZM15.1926 10.1421V7.66552C15.1926 7.49442 15.3285 7.35587 15.4957 7.35587C15.663 7.35587 15.7986 7.49437 15.7986 7.66552V10.1421C15.7986 10.313 15.663 10.4514 15.4957 10.4514C15.3285 10.4514 15.1926 10.3129 15.1926 10.1421ZM12.7683 10.1421V7.66552C12.7683 7.58344 12.8002 7.50471 12.8571 7.44667C12.9139 7.38862 12.9909 7.35601 13.0713 7.35601C13.1516 7.35601 13.2287 7.38862 13.2855 7.44667C13.3424 7.50471 13.3743 7.58344 13.3743 7.66552V10.1421C13.3743 10.2241 13.3424 10.3028 13.2856 10.3608C13.2288 10.4189 13.1517 10.4514 13.0714 10.4514C13.0316 10.4515 12.9922 10.4435 12.9555 10.4279C12.9187 10.4124 12.8853 10.3896 12.8571 10.3609C12.829 10.3322 12.8067 10.2981 12.7914 10.2605C12.7762 10.223 12.7683 10.1827 12.7683 10.1421ZM10.344 10.1421V7.66552C10.344 7.62488 10.3518 7.58462 10.367 7.54706C10.3822 7.5095 10.4045 7.47537 10.4327 7.44661C10.4608 7.41786 10.4942 7.39504 10.5309 7.37947C10.5677 7.3639 10.6071 7.35589 10.6469 7.35587C10.7273 7.35589 10.8043 7.38851 10.8612 7.44658C10.918 7.50465 10.95 7.5834 10.95 7.66552V10.1421C10.9499 10.2242 10.918 10.3029 10.8611 10.3609C10.8043 10.4189 10.7272 10.4515 10.6469 10.4514C10.5665 10.4514 10.4895 10.4188 10.4327 10.3608C10.3759 10.3028 10.344 10.2241 10.344 10.1421ZM16.5378 15.2084C16.5378 15.6808 16.1611 16.0656 15.6979 16.0656C15.235 16.0656 14.8583 15.6808 14.8583 15.2084C14.8583 14.7352 15.235 14.3504 15.6979 14.3504C16.1611 14.3504 16.5378 14.7352 16.5378 15.2084ZM11.1962 15.2084C11.1962 15.6808 10.8195 16.0656 10.3566 16.0656C9.89388 16.0656 9.51696 15.6808 9.51696 15.2084C9.51696 14.7352 9.89383 14.3504 10.3566 14.3504C10.8195 14.3504 11.1962 14.7352 11.1962 15.2084ZM4.69033 17.3646C6.54496 16.7242 7.67306 15.5736 8.23637 13.7494C8.74016 12.1183 8.71361 10.1704 8.6674 8.4183C8.29056 8.35247 7.91679 8.26953 7.54718 8.16972C7.46702 8.14831 7.38785 8.12564 7.30818 8.10294C7.28648 8.10803 7.2643 8.11065 7.24204 8.11077C7.16084 8.11077 7.08293 8.07609 7.02625 8.01713C6.17647 7.7487 5.37975 7.39917 4.69033 6.99017C3.53188 7.67768 2.10995 8.17493 0.713762 8.41835C0.667819 10.1705 0.640451 12.1183 1.14452 13.7495C1.7081 15.5736 2.8362 16.7242 4.69033 17.3646ZM19.0959 5.90863H6.87995L7.45705 7.50243C7.98217 7.65428 8.47474 7.76487 9.00802 7.84649C9.15307 7.86892 9.26235 7.99438 9.26619 8.14411C9.2986 9.34195 9.33337 10.642 9.20645 11.8986L15.8573 11.8991C16.4742 11.8991 16.9972 11.5576 17.2564 10.9856L19.3648 6.33923C19.3863 6.29311 19.3959 6.24217 19.3928 6.1912C19.3897 6.14023 19.374 6.09089 19.3471 6.04784C19.3202 6.00478 19.2831 5.96942 19.2391 5.94507C19.1952 5.92071 19.1459 5.90818 19.0959 5.90863ZM8.88931 3.15766C8.88931 3.12376 8.91717 3.09558 8.95009 3.09558H14.1421V5.28938H8.88931V3.15766ZM14.8088 0.619023H17.3138C17.3468 0.619023 17.3746 0.647211 17.3746 0.68111V5.28938H14.7481V0.68111C14.7481 0.647211 14.7759 0.619023 14.8088 0.619023ZM3.92197 3.63764V4.16924C3.92197 4.30516 3.69446 4.46323 3.40104 4.46323H1.12689C0.833736 4.46323 0.606231 4.30516 0.606231 4.16924V3.85544C0.606231 3.7198 0.833736 3.56173 1.12689 3.56173H3.172C3.19779 3.56643 3.21497 3.58149 3.28026 3.58103L3.80677 3.57398C3.87012 3.59093 3.91074 3.62041 3.92197 3.63764ZM15.8573 12.5182C16.7163 12.5182 17.4451 12.0426 17.8064 11.2462L19.9148 6.59964C20.193 5.98734 19.7559 5.28938 19.0959 5.28938H17.9805V0.68111C17.9805 0.305458 17.6815 0 17.3138 0H14.8088C14.4411 0 14.1421 0.305458 14.1421 0.68111V2.47655H8.95009C8.58214 2.47655 8.28335 2.78201 8.28335 3.15766V5.28938H6.65623L6.16262 3.92642C5.94585 3.32725 5.4045 2.94248 4.78041 2.94248C4.77401 2.94248 4.76711 2.94248 4.76076 2.94298L3.86088 2.95445C3.81084 2.9467 3.76031 2.94268 3.7097 2.94243H1.12689C0.495138 2.94243 0 3.34365 0 3.85544V4.16924C0 4.68104 0.495138 5.08225 1.12689 5.08225H3.40104C4.03302 5.08225 4.52788 4.68104 4.52788 4.16924L4.52432 3.56486L4.78046 3.56173C5.1535 3.56173 5.46455 3.78295 5.59427 4.1411L6.72417 7.26302C6.03909 7.01417 5.40224 6.71027 4.84813 6.36567C4.80062 6.33611 4.74607 6.32048 4.69044 6.32048C4.63482 6.32048 4.58027 6.33611 4.53275 6.36567C3.34135 7.10601 1.83321 7.62347 0.373089 7.84653C0.302715 7.85732 0.238294 7.89304 0.191099 7.94745C0.143904 8.00186 0.11694 8.07149 0.114925 8.14416C0.0643834 10.0103 0.00743929 12.1253 0.566645 13.9357C1.19479 15.9693 2.51343 17.2939 4.59709 17.9849C4.65792 18.005 4.72341 18.005 4.78425 17.9849C6.72643 17.3406 8.00345 16.1456 8.67682 14.3395C8.81014 14.3572 9.04017 14.3504 9.18061 14.3504C8.49972 15.324 9.1821 16.6846 10.3565 16.6846C11.5338 16.6846 12.2119 15.3195 11.5321 14.3504H14.5223C13.8425 15.3194 14.5205 16.6846 15.6979 16.6846C16.8727 16.6846 17.5545 15.3238 16.8738 14.3504H18.0305C18.1983 14.3504 18.3336 14.2119 18.3336 14.041C18.3336 13.8702 18.1983 13.7314 18.0305 13.7314H8.87448C8.9848 13.338 9.06776 12.9319 9.12985 12.5179L15.8573 12.5182Z" fill="#8B5CF6"/>
</svg>
