<svg width="20" height="20" viewBox="0 0 20 20" fill="none" xmlns="http://www.w3.org/2000/svg">
<path d="M9.40863 0L0 4.75613V15.6817L10.7174 20H10.7217V19.9978L20 14.5346V3.61075L9.40863 0Z" fill="#DDD6FE"/>
<path d="M20 3.61075L9.40863 0L0 4.75613V15.6817L10.7174 20H10.7217V9.07097L10.7196 9.07011L20 3.61075Z" fill="#C4B5FD"/>
<path d="M10.7217 9.07094V20H10.7174L0 15.6817V4.75696L1.26062 5.26448L10.7217 9.07094Z" fill="#8B5CF6"/>
<path d="M10.7217 9.07098V18.4989L3.67085 15.6559C2.9591 15.3687 2.34946 14.8753 1.92016 14.2393C1.49085 13.6032 1.26148 12.8534 1.26147 12.086V5.26453L10.7217 9.07098Z" fill="#A78BFA"/>
<path d="M15.4932 2.07312L15.3039 2.17635L6.1483 7.23011L6.13109 10.7441L4.68116 10.2022L3.73462 9.84517V6.26237L13.2775 1.32043L15.4932 2.07312Z" fill="#5B21B6"/>
<path d="M15.3146 2.17638L6.15891 7.23015L6.1417 10.7441L4.69177 10.2022V6.75273L14.2389 1.81079L15.3146 2.17638Z" fill="#6D28D9"/>
</svg>
