<svg width="20" height="14" viewBox="0 0 20 14" fill="none" xmlns="http://www.w3.org/2000/svg">
<path d="M8.73239 5.42857C8.73239 6.91429 8.50704 8.19048 8.05634 9.25714C7.60563 10.3619 7.02347 11.2571 6.30986 11.9429C5.59624 12.6667 4.78873 13.181 3.88732 13.4857C2.94835 13.8286 2.02817 14 1.12676 14L1.12676 12C2.10328 12 3.02347 11.6571 3.88732 10.9714C4.71361 10.3238 5.20188 9.42857 5.35211 8.28571C5.23943 8.32381 5.10798 8.3619 4.95775 8.4C4.84507 8.4381 4.71361 8.47619 4.56338 8.51429C4.37559 8.55238 4.16901 8.57143 3.94366 8.57143C2.8169 8.57143 1.87793 8.13333 1.12676 7.25714C0.375583 6.41905 -2.65669e-06 5.42857 -2.75661e-06 4.28571C-2.85652e-06 3.14286 0.394364 2.13334 1.1831 1.25714C1.93427 0.419049 2.94836 1.49069e-06 4.22535 1.37905e-06C5.65258 1.25428e-06 6.76056 0.533334 7.54929 1.6C8.33803 2.70476 8.73239 3.98095 8.73239 5.42857ZM20 5.42857C20 6.91429 19.7746 8.19048 19.3239 9.25714C18.8732 10.3619 18.2911 11.2571 17.5775 11.9429C16.8638 12.6667 16.0563 13.181 15.1549 13.4857C14.216 13.8286 13.2958 14 12.3944 14L12.3944 12C13.3709 12 14.2911 11.6571 15.1549 10.9714C15.9812 10.3238 16.4695 9.42857 16.6197 8.28571C16.507 8.32381 16.3756 8.3619 16.2254 8.4C16.1127 8.4381 15.9812 8.47619 15.831 8.51429C15.6432 8.55238 15.4366 8.57143 15.2113 8.57143C14.0845 8.57143 13.1455 8.13333 12.3944 7.25714C11.6432 6.41905 11.2676 5.42857 11.2676 4.28571C11.2676 3.14286 11.662 2.13333 12.4507 1.25714C13.2019 0.419048 14.216 5.05652e-07 15.493 3.94014e-07C16.9202 2.69243e-07 18.0282 0.533333 18.8169 1.6C19.6056 2.70476 20 3.98095 20 5.42857Z" fill="#111827"/>
</svg>
